<svg width="155" height="43" viewBox="0 0 155 43" fill="none" xmlns="http://www.w3.org/2000/svg">
<rect x="21.4277" width="30.3033" height="30.3033" rx="4.09739" transform="rotate(45 21.4277 0)" fill="#252244"/>
<g clip-path="url(#clip0_78_5048)">
<path d="M22.9034 14.1363C23.6865 13.3533 23.6865 12.084 22.9034 11.3011C22.1203 10.5181 20.8506 10.5181 20.0675 11.3011C19.2844 12.084 19.2844 13.3533 20.0675 14.1363C20.8506 14.9192 22.1203 14.9192 22.9034 14.1363Z" fill="#FF6600"/>
<path d="M31.5566 19.9521C30.7768 19.1725 29.5006 19.1725 28.7208 19.9521L28.49 20.1829C28.0748 20.5981 27.3951 20.5981 26.9797 20.1829C26.6481 19.8513 26.5813 19.3513 26.7793 18.9518L28.5643 17.1671C29.3442 16.3875 29.3442 15.1116 28.5643 14.332C27.7845 13.5523 26.5083 13.5523 25.7285 14.332L19.7642 20.2949L18.787 21.2719C18.3717 21.6871 17.6921 21.6871 17.2767 21.2719C16.8614 20.8567 16.8614 20.1772 17.2767 19.7619L18.2539 18.7849L19.4638 17.5754C20.2436 16.7957 20.2436 15.5198 19.4638 14.7402C18.6839 13.9606 17.4078 13.9606 16.6279 14.7402L11.2988 20.0681C10.5189 20.8477 10.5189 22.1236 11.2988 22.9032C12.0786 23.6829 13.3548 23.6829 14.1346 22.9032L14.3654 22.6725C14.7807 22.2573 15.4603 22.2573 15.8757 22.6725C16.291 23.0877 16.291 23.7672 15.8757 24.1825L15.6449 24.4132L14.3677 25.6901C13.5879 26.4697 13.5879 27.7456 14.3677 28.5253C15.1475 29.3049 16.4237 29.3049 17.2035 28.5253L24.3472 21.3832C24.7468 21.1852 25.247 21.252 25.5786 21.5836C25.9939 21.9988 25.9939 22.6783 25.5786 23.0935L24.6014 24.0705L23.3915 25.2801C22.6117 26.0597 22.6117 27.3356 23.3915 28.1153C24.1714 28.8949 25.4475 28.8949 26.2274 28.1153L31.5565 22.7873C32.3364 22.0077 32.3364 20.7318 31.5565 19.9521H31.5566Z" fill="#FF6600"/>
<path d="M22.7874 31.5543C23.5705 30.7714 23.5705 29.502 22.7874 28.7191C22.0042 27.9362 20.7346 27.9362 19.9515 28.7191C19.1684 29.502 19.1684 30.7714 19.9515 31.5543C20.7346 32.3372 22.0042 32.3372 22.7874 31.5543Z" fill="#FF6600"/>
</g>
<path d="M56.1088 13.3457V29.4277H53.2928V13.3457H56.1088ZM61.9616 29.4277H59.2776V18.5597H61.7636L61.9836 19.9677C62.6656 18.8677 63.9856 18.2297 65.4596 18.2297C68.1876 18.2297 69.5956 19.9237 69.5956 22.7397V29.4277H66.9116V23.3777C66.9116 21.5517 66.0096 20.6717 64.6236 20.6717C62.9736 20.6717 61.9616 21.8157 61.9616 23.5757V29.4277ZM75.9287 29.4277H73.2447V20.8037H71.1547V18.5597H73.2447V15.1717H75.9287V18.5597H78.0407V20.8037H75.9287V29.4277ZM84.4639 29.7137C81.2299 29.7137 78.9639 27.3597 78.9639 23.9937C78.9639 20.5837 81.1859 18.2297 84.3759 18.2297C87.6319 18.2297 89.6999 20.4077 89.6999 23.7957V24.6097L81.5159 24.6317C81.7139 26.5457 82.7259 27.5137 84.5079 27.5137C85.9819 27.5137 86.9499 26.9417 87.2579 25.9077H89.7439C89.2819 28.2837 87.3019 29.7137 84.4639 29.7137ZM84.3979 20.4297C82.8139 20.4297 81.8459 21.2877 81.5819 22.9157H87.0379C87.0379 21.4197 86.0039 20.4297 84.3979 20.4297ZM91.232 23.7517C91.232 20.5837 93.3 18.2077 96.402 18.2077C98.03 18.2077 99.306 18.8897 99.944 20.0557L100.098 18.5597H102.584V28.8777C102.584 32.5077 100.406 34.7737 96.886 34.7737C93.762 34.7737 91.628 32.9917 91.298 30.0877H93.982C94.158 31.4957 95.236 32.3317 96.886 32.3317C98.734 32.3317 99.922 31.1657 99.922 29.3617V27.5577C99.24 28.5697 97.898 29.2077 96.336 29.2077C93.256 29.2077 91.232 26.8977 91.232 23.7517ZM93.938 23.6857C93.938 25.5117 95.104 26.8757 96.864 26.8757C98.712 26.8757 99.856 25.5777 99.856 23.6857C99.856 21.8377 98.734 20.5617 96.864 20.5617C95.082 20.5617 93.938 21.9037 93.938 23.6857ZM112.182 18.5157V21.0017H111.192C109.256 21.0017 108.046 22.0357 108.046 24.1477V29.4277H105.362V18.5817H107.892L108.046 20.1657C108.508 19.0877 109.542 18.3617 110.994 18.3617C111.368 18.3617 111.742 18.4057 112.182 18.5157ZM116.803 29.7137C114.493 29.7137 113.085 28.3717 113.085 26.3257C113.085 24.3237 114.537 23.0697 117.111 22.8717L120.367 22.6297V22.3877C120.367 20.9137 119.487 20.3197 118.123 20.3197C116.539 20.3197 115.659 20.9797 115.659 22.1237H113.371C113.371 19.7697 115.307 18.2297 118.255 18.2297C121.181 18.2297 122.985 19.8137 122.985 22.8277V29.4277H120.631L120.433 27.8217C119.971 28.9437 118.497 29.7137 116.803 29.7137ZM117.683 27.6897C119.333 27.6897 120.389 26.6997 120.389 25.0277V24.4557L118.123 24.6317C116.451 24.7857 115.813 25.3357 115.813 26.2157C115.813 27.2057 116.473 27.6897 117.683 27.6897ZM128.107 29.4277H125.621V13.0597H128.305V20.1437C129.009 18.9337 130.461 18.2077 132.111 18.2077C135.213 18.2077 137.105 20.6277 137.105 24.0597C137.105 27.4037 135.059 29.7137 131.935 29.7137C130.307 29.7137 128.921 28.9877 128.283 27.7337L128.107 29.4277ZM128.327 23.9497C128.327 25.9077 129.537 27.2497 131.385 27.2497C133.277 27.2497 134.399 25.8857 134.399 23.9497C134.399 22.0137 133.277 20.6277 131.385 20.6277C129.537 20.6277 128.327 21.9917 128.327 23.9497ZM140.584 16.3817C139.66 16.3817 138.934 15.6557 138.934 14.7537C138.934 13.8517 139.66 13.1477 140.584 13.1477C141.464 13.1477 142.19 13.8517 142.19 14.7537C142.19 15.6557 141.464 16.3817 140.584 16.3817ZM139.242 29.4277V18.5597H141.926V29.4277H139.242ZM152.906 29.4277H144.128V27.2277L149.54 20.8037H144.128V18.5597H152.906V20.7817L147.406 27.1837H152.906V29.4277Z" fill="#252244"/>
<defs>
<clipPath id="clip0_78_5048">
<rect width="21.4277" height="21.4277" fill="white" transform="translate(10.7138 10.7138)"/>
</clipPath>
</defs>
</svg>
