<?xml version="1.0" encoding="UTF-8"?>
<svg id="Camada_1" data-name="Camada 1" xmlns="http://www.w3.org/2000/svg" viewBox="0 0 423.32 136.63">
  <g>
    <path d="M131.89,14.46c3.91,3.91,7.3,8.15,10.16,12.63,1.26,1.96,4.3,1.05,4.3-1.28V4.59c0-2.53-2.05-4.58-4.58-4.58h-21.24c-2.33,0-3.25,3.04-1.28,4.3,4.48,2.86,8.72,6.25,12.64,10.16Z" style="fill: #f60;"/>
    <path d="M126.49,19.85c-8.11-8.11-17.76-13.73-28.01-16.88-4.92-1.51-9.98-2.44-15.07-2.81-18.93-1.35-38.32,5.21-52.79,19.68L0,50.47s0,0,0,0h0S0,83.59,0,83.59l47.17-47.18c8.54-8.54,19.68-12.87,30.87-12.99,11.53-.13,23.1,4.2,31.9,12.99,22.54,22.54,15.77,63.28-20.3,74.88-7.23,2.33-15.07,2.3-22.29-.04-22.32-7.24-33.38-25.66-33.17-43.97l-20.44,20.44c5.86,19.13,20.37,36.17,43.54,45,13.57,5.17,28.65,5.23,42.23.12,51.55-19.4,60.55-79.41,26.98-112.98Z" style="fill: #f60;"/>
  </g>
  <g>
    <path d="M367.26,55.5l-7,6.98c-1.63-2.24-4.28-3.7-7.28-3.7-5,0-9.05,4.05-9.05,9.05v35.87h-9.83v-54.75h9.83v2.32c2.69-1.48,5.77-2.32,9.05-2.32,5.71,0,10.82,2.53,14.27,6.55Z" style="fill: #252244;"/>
    <path d="M413.5,48.96v6.37c-4.74-3.98-10.86-6.37-17.56-6.37-15.12,0-27.37,12.25-27.37,27.37s12.25,27.37,27.37,27.37c6.69,0,12.81-2.4,17.56-6.38v6.38h9.82v-54.75h-9.82ZM395.94,93.89c-9.7,0-17.54-7.86-17.54-17.56s7.85-17.54,17.54-17.54,17.56,7.85,17.56,17.54-7.86,17.56-17.56,17.56Z" style="fill: #252244;"/>
    <path d="M237.6,93.89c-3.07,0-5.94-.78-8.44-2.17l30.96-30.96c-1.89-2.71-4.23-5.06-6.95-6.95-4.43-3.05-9.79-4.85-15.57-4.85-15.12,0-27.37,12.26-27.37,27.37,0,5.79,1.79,11.14,4.85,15.57,1.87,2.71,4.23,5.07,6.95,6.95,4.42,3.07,9.79,4.87,15.57,4.87,8.95,0,16.91-4.31,21.91-10.96l-7.07-7.07c-3.11,4.93-8.6,8.2-14.84,8.2ZM220.05,76.33c0-9.68,7.86-17.54,17.56-17.54,3.05,0,5.94.79,8.43,2.17l-23.82,23.82c-1.38-2.51-2.17-5.39-2.17-8.44Z" style="fill: #252244;"/>
    <path d="M202.84,93.86v9.82c-.24.02-.47.02-.72.02-6.68,0-12.79-2.4-17.54-6.38-6.01-5.01-9.83-12.56-9.83-21v-30.23h-8.75v-2.75l7.07-7.07,1.68-1.69,7.07-7.07h2.76v8.76h18.16v9.82h-18.16v30.23c0,9.7,7.86,17.56,17.54,17.56.24,0,.49,0,.72-.02Z" style="fill: #252244;"/>
    <path d="M313.65,48.95v6.37c-4.76-3.98-10.86-6.37-17.54-6.37-15.12,0-27.37,12.25-27.37,27.37,0,3.75.75,7.32,2.12,10.57,1.7,4.06,4.36,7.64,7.7,10.43,4.74,3.98,10.88,6.38,17.56,6.38s12.79-2.4,17.54-6.36v.13c0,9.7-7.86,17.54-17.54,17.54-7.14,0-13.29-4.26-16.01-10.38l-7.25,7.25c4.82,7.77,13.43,12.96,23.26,12.96,15.11,0,27.37-12.25,27.37-27.37v-48.52h-9.83ZM296.11,93.88c-5.73,0-10.8-2.74-14-6.98-2.2-2.91-3.52-6.51-3.55-10.43v-.15c0-9.7,7.86-17.54,17.56-17.54s17.54,7.85,17.54,17.54v.15c-.04,3.92-1.34,7.52-3.55,10.43-3.19,4.25-8.27,6.98-13.99,6.98Z" style="fill: #252244;"/>
  </g>
</svg>